#Comment line ignore any data following # character 
#Hierarchical Translation and Rotation (.htr) file 
[Header]	
#Header keywords are followed by a single value 
FileType HTR		#Single word string
DataType HTRS		#Translation followed by rotation and scale data
FileVersion 1		#integer
NumSegments 84		#integer
NumFrames 2		#integer
DataFrameRate 30		#integer, data frame rate in this file
EulerRotationOrder ZYX
CalibrationUnits mm
RotationUnits Degrees
GlobalAxisofGravity Y
BoneLengthAxis Y
ScaleFactor 1.00
[SegmentNames&Hierarchy]
#CHILD	PARENT
MASTER GLOBAL
root MASTER
chest root
L_mid_tent01 root
R_mid_tent01 root
spine01 root
Bip01_Neck chest
L_humerus chest
R_humerus chest
weapon_bone chest
Bip01_Head Bip01_Neck
eye_left_bone Bip01_Head
eye_right_bone Bip01_Head
L_forearm L_humerus
L_front_hand L_forearm
L_weapon_bone L_forearm
L_front_hand01_01 L_front_hand
L_front_hand02_01 L_front_hand
L_front_hand03_01 L_front_hand
L_front_hand01_02 L_front_hand01_01
L_front_hand02_02 L_front_hand02_01
L_front_hand03_02 L_front_hand03_01
R_forearm R_humerus
R_front_hand R_forearm
R_weapon_bone R_forearm
R_front_hand01_01 R_front_hand
R_front_hand02_01 R_front_hand
R_front_hand03_01 R_front_hand
R_front_hand01_02 R_front_hand01_01
R_front_hand02_02 R_front_hand02_01
R_front_hand03_02 R_front_hand03_01
null_rope01_connect L_mid_tent01
Rope1_Seg01 null_rope01_connect
Rope1_Seg02 Rope1_Seg01
Rope1_Seg03 Rope1_Seg02
Rope1_Seg04 Rope1_Seg03
Rope1_Seg05 Rope1_Seg04
Rope1_Seg06 Rope1_Seg05
Rope1_Seg07 Rope1_Seg06
Rope1_Seg09 Rope1_Seg07
L_mid_hand01 Rope1_Seg09
L_mid_hand02 Rope1_Seg09
L_mid_hand03 Rope1_Seg09
null_rope02_connect R_mid_tent01
Rope2_Seg01 null_rope02_connect
Rope2_Seg02 Rope2_Seg01
Rope2_Seg03 Rope2_Seg02
Rope2_Seg04 Rope2_Seg03
Rope2_Seg05 Rope2_Seg04
Rope2_Seg06 Rope2_Seg05
Rope2_Seg07 Rope2_Seg06
Rope2_Seg09 Rope2_Seg07
R_mid_hand01 Rope2_Seg09
R_mid_hand02 Rope2_Seg09
R_mid_hand03 Rope2_Seg09
spine02 spine01
spine03 spine02
pelvis spine03
null_rope03_connect pelvis
null_rope04_connect pelvis
Rope3_Seg01 null_rope03_connect
Rope3_Seg02 Rope3_Seg01
Rope3_Seg03 Rope3_Seg02
Rope3_Seg04 Rope3_Seg03
Rope3_Seg05 Rope3_Seg04
Rope3_Seg06 Rope3_Seg05
Rope3_Seg07 Rope3_Seg06
Rope3_Seg08 Rope3_Seg07
Rope3_Seg09 Rope3_Seg08
R_rear_hand01 Rope3_Seg09
R_rear_hand02 Rope3_Seg09
R_rear_hand03 Rope3_Seg09
Rope4_Seg01 null_rope04_connect
Rope4_Seg02 Rope4_Seg01
Rope4_Seg03 Rope4_Seg02
Rope4_Seg04 Rope4_Seg03
Rope4_Seg05 Rope4_Seg04
Rope4_Seg06 Rope4_Seg05
Rope4_Seg07 Rope4_Seg06
Rope4_Seg08 Rope4_Seg07
Rope4_Seg09 Rope4_Seg08
L_rear_hand01 Rope4_Seg09
L_rear_hand02 Rope4_Seg09
L_rear_hand03 Rope4_Seg09
[BasePosition]
#SegmentName Tx, Ty, Tz, Rx, Ry, Rz, BoneLength
MASTER 0.000000 0.000000 0.000000 -90.000000 0.000000 0.000000 10.000000 
root 0.000000 0.000000 0.000000 0.000000 0.000000 0.000000 10.000000 
chest 0.000000 0.000000 0.000000 0.000000 0.000000 0.000000 10.000000 
L_mid_tent01 0.000000 0.000000 0.000000 0.000000 0.000000 0.000000 10.000000 
R_mid_tent01 0.000000 0.000000 0.000000 0.000000 0.000000 0.000000 10.000000 
spine01 0.000000 0.000000 0.000000 0.000000 0.000000 0.000000 10.000000 
Bip01_Neck 0.000000 0.000000 0.000000 0.000000 0.000000 0.000000 10.000000 
L_humerus 0.000000 0.000000 0.000000 0.000000 0.000000 0.000000 10.000000 
R_humerus 0.000000 0.000000 0.000000 0.000000 0.000000 0.000000 10.000000 
weapon_bone 0.000000 0.000000 0.000000 0.000000 0.000000 0.000000 10.000000 
Bip01_Head 0.000000 0.000000 0.000000 0.000000 0.000000 0.000000 10.000000 
eye_left_bone 0.000000 0.000000 0.000000 0.000000 0.000000 0.000000 10.000000 
eye_right_bone 0.000000 0.000000 0.000000 0.000000 0.000000 0.000000 10.000000 
L_forearm 0.000000 0.000000 0.000000 0.000000 0.000000 0.000000 10.000000 
L_front_hand 0.000000 0.000000 0.000000 0.000000 0.000000 0.000000 10.000000 
L_weapon_bone 0.000000 0.000000 0.000000 0.000000 0.000000 0.000000 10.000000 
L_front_hand01_01 0.000000 0.000000 0.000000 0.000000 0.000000 0.000000 10.000000 
L_front_hand02_01 0.000000 0.000000 0.000000 0.000000 0.000000 0.000000 10.000000 
L_front_hand03_01 0.000000 0.000000 0.000000 0.000000 0.000000 0.000000 10.000000 
L_front_hand01_02 0.000000 0.000000 0.000000 0.000000 0.000000 0.000000 10.000000 
L_front_hand02_02 0.000000 0.000000 0.000000 0.000000 0.000000 0.000000 10.000000 
L_front_hand03_02 0.000000 0.000000 0.000000 0.000000 0.000000 0.000000 10.000000 
R_forearm 0.000000 0.000000 0.000000 0.000000 0.000000 0.000000 10.000000 
R_front_hand 0.000000 0.000000 0.000000 0.000000 0.000000 0.000000 10.000000 
R_weapon_bone 0.000000 0.000000 0.000000 0.000000 0.000000 0.000000 10.000000 
R_front_hand01_01 0.000000 0.000000 0.000000 0.000000 0.000000 0.000000 10.000000 
R_front_hand02_01 0.000000 0.000000 0.000000 0.000000 0.000000 0.000000 10.000000 
R_front_hand03_01 0.000000 0.000000 0.000000 0.000000 0.000000 0.000000 10.000000 
R_front_hand01_02 0.000000 0.000000 0.000000 0.000000 0.000000 0.000000 10.000000 
R_front_hand02_02 0.000000 0.000000 0.000000 0.000000 0.000000 0.000000 10.000000 
R_front_hand03_02 0.000000 0.000000 0.000000 0.000000 0.000000 0.000000 10.000000 
null_rope01_connect 0.000000 0.000000 0.000000 0.000000 0.000000 0.000000 10.000000 
Rope1_Seg01 0.000000 0.000000 0.000000 0.000000 0.000000 0.000000 10.000000 
Rope1_Seg02 0.000000 0.000000 0.000000 0.000000 0.000000 0.000000 10.000000 
Rope1_Seg03 0.000000 0.000000 0.000000 0.000000 0.000000 0.000000 10.000000 
Rope1_Seg04 0.000000 0.000000 0.000000 0.000000 0.000000 0.000000 10.000000 
Rope1_Seg05 0.000000 0.000000 0.000000 0.000000 0.000000 0.000000 10.000000 
Rope1_Seg06 0.000000 0.000000 0.000000 0.000000 0.000000 0.000000 10.000000 
Rope1_Seg07 0.000000 0.000000 0.000000 0.000000 0.000000 0.000000 10.000000 
Rope1_Seg09 0.000000 0.000000 0.000000 0.000000 0.000000 0.000000 10.000000 
L_mid_hand01 0.000000 0.000000 0.000000 0.000000 0.000000 0.000000 10.000000 
L_mid_hand02 0.000000 0.000000 0.000000 0.000000 0.000000 0.000000 10.000000 
L_mid_hand03 0.000000 0.000000 0.000000 0.000000 0.000000 0.000000 10.000000 
null_rope02_connect 0.000000 0.000000 0.000000 0.000000 0.000000 0.000000 10.000000 
Rope2_Seg01 0.000000 0.000000 0.000000 0.000000 0.000000 0.000000 10.000000 
Rope2_Seg02 0.000000 0.000000 0.000000 0.000000 0.000000 0.000000 10.000000 
Rope2_Seg03 0.000000 0.000000 0.000000 0.000000 0.000000 0.000000 10.000000 
Rope2_Seg04 0.000000 0.000000 0.000000 0.000000 0.000000 0.000000 10.000000 
Rope2_Seg05 0.000000 0.000000 0.000000 0.000000 0.000000 0.000000 10.000000 
Rope2_Seg06 0.000000 0.000000 0.000000 0.000000 0.000000 0.000000 10.000000 
Rope2_Seg07 0.000000 0.000000 0.000000 0.000000 0.000000 0.000000 10.000000 
Rope2_Seg09 0.000000 0.000000 0.000000 0.000000 0.000000 0.000000 10.000000 
R_mid_hand01 0.000000 0.000000 0.000000 0.000000 0.000000 0.000000 10.000000 
R_mid_hand02 0.000000 0.000000 0.000000 0.000000 0.000000 0.000000 10.000000 
R_mid_hand03 0.000000 0.000000 0.000000 0.000000 0.000000 0.000000 10.000000 
spine02 0.000000 0.000000 0.000000 0.000000 0.000000 0.000000 10.000000 
spine03 0.000000 0.000000 0.000000 0.000000 0.000000 0.000000 10.000000 
pelvis 0.000000 0.000000 0.000000 0.000000 0.000000 0.000000 10.000000 
null_rope03_connect 0.000000 0.000000 0.000000 0.000000 0.000000 0.000000 10.000000 
null_rope04_connect 0.000000 0.000000 0.000000 0.000000 0.000000 0.000000 10.000000 
Rope3_Seg01 0.000000 0.000000 0.000000 0.000000 0.000000 0.000000 10.000000 
Rope3_Seg02 0.000000 0.000000 0.000000 0.000000 0.000000 0.000000 10.000000 
Rope3_Seg03 0.000000 0.000000 0.000000 0.000000 0.000000 0.000000 10.000000 
Rope3_Seg04 0.000000 0.000000 0.000000 0.000000 0.000000 0.000000 10.000000 
Rope3_Seg05 0.000000 0.000000 0.000000 0.000000 0.000000 0.000000 10.000000 
Rope3_Seg06 0.000000 0.000000 0.000000 0.000000 0.000000 0.000000 10.000000 
Rope3_Seg07 0.000000 0.000000 0.000000 0.000000 0.000000 0.000000 10.000000 
Rope3_Seg08 0.000000 0.000000 0.000000 0.000000 0.000000 0.000000 10.000000 
Rope3_Seg09 0.000000 0.000000 0.000000 0.000000 0.000000 0.000000 10.000000 
R_rear_hand01 0.000000 0.000000 0.000000 0.000000 0.000000 0.000000 10.000000 
R_rear_hand02 0.000000 0.000000 0.000000 0.000000 0.000000 0.000000 10.000000 
R_rear_hand03 0.000000 0.000000 0.000000 0.000000 0.000000 0.000000 10.000000 
Rope4_Seg01 0.000000 0.000000 0.000000 0.000000 0.000000 0.000000 10.000000 
Rope4_Seg02 0.000000 0.000000 0.000000 0.000000 0.000000 0.000000 10.000000 
Rope4_Seg03 0.000000 0.000000 0.000000 0.000000 0.000000 0.000000 10.000000 
Rope4_Seg04 0.000000 0.000000 0.000000 0.000000 0.000000 0.000000 10.000000 
Rope4_Seg05 0.000000 0.000000 0.000000 0.000000 0.000000 0.000000 10.000000 
Rope4_Seg06 0.000000 0.000000 0.000000 0.000000 0.000000 0.000000 10.000000 
Rope4_Seg07 0.000000 0.000000 0.000000 0.000000 0.000000 0.000000 10.000000 
Rope4_Seg08 0.000000 0.000000 0.000000 0.000000 0.000000 0.000000 10.000000 
Rope4_Seg09 0.000000 0.000000 0.000000 0.000000 0.000000 0.000000 10.000000 
L_rear_hand01 0.000000 0.000000 0.000000 0.000000 0.000000 0.000000 10.000000 
L_rear_hand02 0.000000 0.000000 0.000000 0.000000 0.000000 0.000000 10.000000 
L_rear_hand03 0.000000 0.000000 0.000000 0.000000 0.000000 0.000000 10.000000 
#Beginning of Data. Separated by tabs
#Fr	Tx	Ty	Tz	Rx	Ry	Rz	SF
[MASTER]
14 0.000000 0.000000 0.000000 0.001660 0.001660 0.001660 0.000000
15 0.000000 0.000000 0.000000 0.001660 0.001660 0.001660 0.000000
[root]
14 -16.502304 9.364140 1448.317383 -91.728897 -11.584496 -89.471619 1448.441650
15 -16.502304 9.364140 1448.317383 -91.728912 -11.584499 -89.471634 1448.441650
[chest]
14 -84.512650 -34.090519 0.000000 -2.144813 0.313244 176.732239 91.129311
15 -84.512650 -34.090519 0.000000 -2.144813 0.313244 176.732239 91.129311
[L_mid_tent01]
14 27.299511 22.177458 -249.918259 -28.266100 32.791580 -5.365355 252.381134
15 27.299511 22.177458 -249.918259 -28.266109 32.791588 -5.365358 252.381134
[R_mid_tent01]
14 23.228794 24.509907 226.238495 -156.204071 -32.814346 0.416457 228.744751
15 23.228794 24.509907 226.238495 -156.204071 -32.814346 0.416457 228.744751
[spine01]
14 -0.361383 -0.195265 0.000000 -0.000001 -0.000007 22.052340 0.410763
15 -0.361383 -0.195265 0.000000 -0.000001 -0.000007 22.052340 0.410763
[Bip01_Neck]
14 165.484543 71.581718 0.000119 175.896118 1.177290 24.871183 180.302734
15 165.484543 71.581718 0.000119 175.896118 1.177290 24.871183 180.302734
[L_humerus]
14 -13.983130 -135.272980 -120.471481 139.910034 88.317856 -130.290009 181.680161
15 -13.983130 -135.272980 -120.471481 139.909653 88.317627 -130.290085 181.680161
[R_humerus]
14 -13.983309 -135.273102 125.287651 133.576981 -87.684464 -45.901276 184.909012
15 -13.983309 -135.273102 125.287651 133.576950 -87.684380 -45.901184 184.909012
[weapon_bone]
14 235.964890 -300.705902 0.000000 0.000000 -89.951546 -128.212341 382.234833
15 235.964890 -300.705902 0.000000 0.000000 -89.951546 -128.212341 382.234833
[Bip01_Head]
14 193.865784 99.525146 7.890730 1.727521 4.534425 -43.429157 218.062973
15 193.865784 99.525146 7.890730 1.727521 4.534425 -43.429153 218.062973
[eye_left_bone]
14 -24.626970 125.451866 -64.772606 0.000000 -90.000000 -99.840431 143.318359
15 -24.626970 125.451866 -64.772606 0.000000 -90.000000 -99.840431 143.318359
[eye_right_bone]
14 -24.626970 125.451866 64.327362 0.000000 -89.965736 80.156380 143.117676
15 -24.626970 125.451866 64.327362 0.000000 -89.965736 80.156380 143.117676
[L_forearm]
14 322.776093 0.000000 -0.000119 0.000248 -0.002334 -102.125244 322.776093
15 322.776093 0.000000 -0.000119 0.000248 -0.002334 -102.125244 322.776093
[L_front_hand]
14 241.149185 -0.042021 -3.300071 -179.659958 -2.242151 -0.019832 241.171753
15 241.149185 -0.042021 -3.300071 -179.659958 -2.242151 -0.019832 241.171753
[L_weapon_bone]
14 156.183838 0.000000 0.000000 0.000014 0.000007 0.000001 156.183838
15 156.183838 0.000000 0.000000 0.000014 0.000007 0.000001 156.183838
[L_front_hand01_01]
14 86.095154 20.947098 -0.655860 -0.366594 -0.477154 75.385574 88.609184
15 86.095154 20.947098 -0.655860 -0.366594 -0.477154 75.385574 88.609184
[L_front_hand02_01]
14 86.935165 -11.437475 24.513514 154.399796 -59.883835 -61.369587 91.046425
15 86.935165 -11.437475 24.513514 154.399796 -59.883835 -61.369587 91.046425
[L_front_hand03_01]
14 86.637497 -14.123976 -20.424902 -153.913849 58.118122 -62.702866 90.126129
15 86.637497 -14.123976 -20.424902 -153.913879 58.118130 -62.702892 90.126129
[L_front_hand01_02]
14 71.020905 -0.000179 0.000030 0.000334 -0.002323 -106.379684 71.020905
15 71.020905 -0.000179 0.000030 0.000334 -0.002323 -106.379684 71.020905
[L_front_hand02_02]
14 71.020927 -0.000119 0.000060 0.000334 -0.002323 -106.379684 71.020927
15 71.020927 -0.000119 0.000060 0.000334 -0.002323 -106.379684 71.020927
[L_front_hand03_02]
14 71.020905 -0.000060 0.000060 0.000334 -0.002323 -106.379684 71.020905
15 71.020905 -0.000060 0.000060 0.000334 -0.002323 -106.379684 71.020905
[R_forearm]
14 322.776428 -0.000060 0.000030 0.208463 0.026596 -98.191154 322.776428
15 322.776428 -0.000060 0.000030 0.208463 0.026596 -98.191154 322.776428
[R_front_hand]
14 238.847015 -0.006795 2.210259 -0.270529 1.703932 2.322530 238.857239
15 238.847015 -0.006795 2.210259 -0.270529 1.703932 2.322531 238.857239
[R_weapon_bone]
14 155.664093 0.002503 -0.000030 0.003487 0.001180 -90.988930 155.664078
15 155.664093 0.002503 -0.000030 0.003487 0.001180 -90.988930 155.664078
[R_front_hand01_01]
14 87.624611 14.231146 22.918642 -154.633499 -59.950619 61.746044 91.683487
15 87.624611 14.231146 22.918642 -154.633499 -59.950634 61.746063 91.683487
[R_front_hand02_01]
14 89.356956 14.367283 -19.491137 154.602661 58.302849 63.744389 92.579636
15 89.356956 14.367283 -19.491137 154.602661 58.302849 63.744381 92.579636
[R_front_hand03_01]
14 87.286232 -22.307278 -0.143439 0.162155 -0.423168 -75.767921 90.091743
15 87.286232 -22.307278 -0.143439 0.162155 -0.423168 -75.767921 90.091743
[R_front_hand01_02]
14 71.020905 0.000060 0.000119 0.002323 -0.000334 106.381714 71.020905
15 71.020905 0.000060 0.000119 0.002323 -0.000334 106.381714 71.020905
[R_front_hand02_02]
14 71.020844 -0.000030 -0.000119 0.002323 -0.000334 106.381714 71.020836
15 71.020844 -0.000030 -0.000119 0.002323 -0.000334 106.381714 71.020836
[R_front_hand03_02]
14 71.020905 0.000000 0.000030 0.002323 -0.000334 106.381714 71.020905
15 71.020905 0.000000 0.000030 0.002323 -0.000334 106.381714 71.020905
[null_rope01_connect]
14 328.732483 0.000000 -0.000238 -119.541275 -47.109665 -141.366821 328.732483
15 328.732483 0.000000 -0.000238 -119.541290 -47.109661 -141.366806 328.732483
[Rope1_Seg01]
14 0.000000 0.000000 0.000000 53.338047 2.330251 -122.184410 0.000000
15 0.000000 0.000000 0.000000 55.353642 -0.322216 -123.360146 0.000000
[Rope1_Seg02]
14 139.999863 -0.000179 0.000000 -10.355513 2.157003 4.695026 139.999863
15 139.999863 -0.000179 0.000000 -7.384342 1.530683 3.943196 139.999863
[Rope1_Seg03]
14 139.999924 0.000060 -0.000060 -10.041496 1.399681 6.734627 139.999924
15 139.999924 0.000060 -0.000060 -7.673783 1.288283 5.270890 139.999924
[Rope1_Seg04]
14 139.999924 -0.000060 -0.000119 -8.473863 -1.736009 11.561754 139.999924
15 139.999924 -0.000060 -0.000119 -3.070349 -3.760360 7.458467 139.999924
[Rope1_Seg05]
14 139.999832 0.000119 -0.000060 -11.030685 6.224725 8.430793 139.999832
15 139.999832 0.000119 -0.000060 -11.535200 5.649492 9.986451 139.999832
[Rope1_Seg06]
14 139.999954 0.000119 -0.000060 -3.983395 2.946947 2.275475 139.999954
15 139.999954 0.000119 -0.000060 -13.248056 11.068087 6.656810 139.999954
[Rope1_Seg07]
14 139.999985 0.000060 0.000000 -1.675072 0.746301 1.534050 139.999985
15 139.999985 0.000060 0.000000 -4.983357 2.973883 3.869321 139.999985
[Rope1_Seg09]
14 121.602913 0.000119 -0.000089 -89.793175 -1.359789 0.847147 121.602913
15 121.602913 0.000119 -0.000089 -89.793175 -1.359789 0.847147 121.602913
[L_mid_hand01]
14 103.859421 1.038730 8.195221 106.855484 -31.239275 -9.461397 104.187431
15 103.859421 1.038730 8.195221 106.855484 -31.239275 -9.461397 104.187431
[L_mid_hand02]
14 105.572853 -4.139662 -10.864139 -142.331345 25.752670 -28.774628 106.211075
15 105.572853 -4.139662 -10.864139 -142.331345 25.752670 -28.774628 106.211075
[L_mid_hand03]
14 104.641464 17.579376 -3.913581 -16.122810 9.734291 34.223598 106.179977
15 104.641464 17.579376 -3.913581 -16.122810 9.734291 34.223598 106.179977
[null_rope02_connect]
14 328.732849 0.000179 -0.000119 -116.029831 50.874489 -29.531246 328.732849
15 328.732849 0.000179 -0.000119 -116.029861 50.874496 -29.531252 328.732849
[Rope2_Seg01]
14 -0.000038 0.000153 0.000000 22.414745 6.321534 -42.153217 0.000157
15 -0.000038 0.000153 0.000000 43.698090 2.737866 -48.521046 0.000157
[Rope2_Seg02]
14 139.999741 -0.000060 -0.000119 35.999058 -13.221369 -10.277493 139.999756
15 139.999741 -0.000060 -0.000119 16.787067 -14.788741 -3.276010 139.999756
[Rope2_Seg03]
14 140.000107 0.000030 0.000000 3.201387 -19.021126 4.960403 140.000107
15 140.000107 0.000030 0.000000 0.809764 -15.548573 5.534007 140.000107
[Rope2_Seg04]
14 139.999802 0.000000 -0.000060 8.360900 -13.611150 -4.908839 139.999802
15 139.999802 0.000000 -0.000060 3.021529 -11.048182 0.375423 139.999802
[Rope2_Seg05]
14 139.999985 -0.000060 0.000119 10.959496 -4.770097 -14.364023 139.999985
15 139.999985 -0.000060 0.000119 10.429869 -2.720077 -14.936372 139.999985
[Rope2_Seg06]
14 139.999893 -0.000030 -0.000119 3.862577 -3.440938 -4.699995 139.999893
15 139.999893 -0.000030 -0.000119 7.062031 -2.980844 -9.257715 139.999893
[Rope2_Seg07]
14 139.999893 0.000060 -0.000060 1.804820 -2.215413 -2.160670 139.999893
15 139.999893 0.000060 -0.000060 3.195915 -2.554958 -3.831418 139.999893
[Rope2_Seg09]
14 121.338966 0.000089 -0.000060 33.793236 -1.359788 -0.847141 121.338966
15 121.338966 0.000089 -0.000060 33.793236 -1.359788 -0.847141 121.338966
[R_mid_hand01]
14 104.680779 11.144459 -10.335981 -41.523792 25.424656 28.595957 105.778534
15 104.680779 11.144459 -10.335981 -41.523792 25.424656 28.595957 105.778534
[R_mid_hand02]
14 104.070427 2.443552 8.231699 72.847389 -32.746803 10.013901 104.424065
15 104.070427 2.443552 8.231699 72.847389 -32.746803 10.013901 104.424065
[R_mid_hand03]
14 106.028137 -11.221827 -5.996406 -167.901306 10.259192 -37.009720 106.788818
15 106.028137 -11.221827 -5.996406 -167.901306 10.259192 -37.009720 106.788818
[spine02]
14 129.756927 0.001550 0.000119 0.360061 -4.044797 -12.915058 129.756927
15 129.756927 0.001550 0.000119 0.360061 -4.044797 -12.915058 129.756927
[spine03]
14 78.613846 0.087372 -4.898873 1.896495 3.831288 16.473045 78.766380
15 78.613846 0.087372 -4.898873 1.896495 3.831288 16.473045 78.766380
[pelvis]
14 169.435242 0.051022 0.000000 -0.060465 -0.180225 14.087930 169.435257
15 169.435242 0.051022 0.000000 -0.060465 -0.180225 14.087931 169.435257
[null_rope03_connect]
14 -1.257226 -2.466202 137.391083 156.329987 -89.381348 -94.430771 137.418976
15 -1.257226 -2.466202 137.391083 156.329849 -89.381973 -94.430771 137.418976
[null_rope04_connect]
14 -1.259640 -2.480268 -137.844437 156.329987 -89.381348 -94.430771 137.872513
15 -1.259640 -2.480268 -137.844437 156.329849 -89.381973 -94.430771 137.872513
[Rope3_Seg01]
14 0.000010 0.000038 -0.000114 -147.641022 33.055389 -105.715340 0.000121
15 0.000010 0.000038 -0.000114 -142.518204 23.005489 -108.996239 0.000121
[Rope3_Seg02]
14 139.999924 -0.000119 0.000060 3.427040 -3.383339 -17.812000 139.999924
15 139.999924 -0.000119 0.000060 1.230262 -9.320723 -14.442575 139.999924
[Rope3_Seg03]
14 139.999924 -0.000119 0.000119 1.441660 -5.196527 -17.785208 139.999924
15 139.999924 -0.000119 0.000119 1.348918 -10.231496 -15.073819 139.999924
[Rope3_Seg04]
14 139.999924 0.000119 0.000000 0.572982 -8.046634 -18.035551 139.999924
15 139.999924 0.000119 0.000000 2.681942 -14.011139 -16.973938 139.999924
[Rope3_Seg05]
14 139.999924 -0.000238 0.000060 -1.136332 2.277290 -1.994841 139.999924
15 139.999924 -0.000238 0.000060 -0.523860 -0.314839 -3.212064 139.999924
[Rope3_Seg06]
14 139.999893 -0.000119 -0.000060 0.526197 12.227463 11.067573 139.999893
15 139.999893 -0.000119 -0.000060 -0.843531 12.964634 7.741765 139.999893
[Rope3_Seg07]
14 139.999771 0.000060 -0.000119 2.306403 13.732265 13.251418 139.999771
15 139.999771 0.000060 -0.000119 2.144072 17.473221 12.193274 139.999771
[Rope3_Seg08]
14 139.999985 -0.000060 0.000000 1.638075 6.880462 5.433777 139.999985
15 139.999985 -0.000060 0.000000 1.778702 8.147980 4.741303 139.999985
[Rope3_Seg09]
14 90.185997 -0.000179 -0.000060 89.793228 -1.359877 -0.847183 90.185997
15 90.185997 -0.000179 -0.000060 89.793228 -1.359877 -0.847183 90.185997
[R_rear_hand01]
14 103.366196 -6.073594 -10.757982 -161.551193 16.666374 -30.088671 104.101845
15 103.366196 -6.073594 -10.757982 -161.551193 16.666374 -30.088671 104.101845
[R_rear_hand02]
14 100.509819 12.039542 -7.992327 -34.280552 19.289745 28.875523 101.543350
15 100.509819 12.039542 -7.992327 -34.280552 19.289745 28.875523 101.543350
[R_rear_hand03]
14 101.539970 5.215704 5.435467 83.366440 -30.933914 7.284830 101.819031
15 101.539970 5.215704 5.435467 83.366440 -30.933914 7.284830 101.819031
[Rope4_Seg01]
14 0.000010 0.000038 -0.000114 49.293793 26.614840 -99.823708 0.000121
15 0.000010 0.000038 -0.000114 46.748558 21.970001 -105.122719 0.000121
[Rope4_Seg02]
14 139.999985 0.000060 0.000119 -0.759223 0.680215 5.266374 139.999985
15 139.999985 0.000060 0.000119 -0.351657 0.916422 5.976164 139.999985
[Rope4_Seg03]
14 139.999924 0.000000 -0.000238 -1.357066 1.260580 7.119002 139.999924
15 139.999924 0.000000 -0.000238 -0.875454 0.916098 7.448579 139.999924
[Rope4_Seg04]
14 139.999985 0.000000 0.000119 -2.444839 1.556126 9.105847 139.999985
15 139.999985 0.000000 0.000119 -2.747005 0.695875 12.909715 139.999985
[Rope4_Seg05]
14 139.999802 -0.000060 -0.000119 2.050558 -3.362246 -7.620538 139.999802
15 139.999802 -0.000060 -0.000119 1.575822 1.609505 -4.949140 139.999802
[Rope4_Seg06]
14 139.999924 0.000000 0.000060 1.247784 -2.506386 -6.227453 139.999924
15 139.999924 0.000000 0.000060 2.395210 1.107146 -9.638228 139.999924
[Rope4_Seg07]
14 139.999802 0.000000 0.000000 0.392354 -1.064503 -2.118959 139.999802
15 139.999802 0.000000 0.000000 0.767956 0.393157 -3.047642 139.999802
[Rope4_Seg08]
14 139.999924 0.000000 0.000119 -1.326665 -0.646143 -1.266980 139.999924
15 139.999924 0.000000 0.000119 -1.114514 0.212162 -1.751333 139.999924
[Rope4_Seg09]
14 90.185791 0.000060 0.000060 -135.617828 2.228885 0.850567 90.185791
15 90.185791 0.000060 0.000060 -135.617828 2.228885 0.850567 90.185791
[L_rear_hand01]
14 101.696655 -8.392275 -7.654577 -34.454281 -18.946800 151.655121 102.329041
15 101.696655 -8.392275 -7.654577 -34.454281 -18.946800 151.655121 102.329041
[L_rear_hand02]
14 102.726799 -1.568258 5.773216 83.407906 30.330435 172.796509 102.900848
15 102.726799 -1.568258 5.773216 83.407906 30.330435 172.796509 102.900848
[L_rear_hand03]
14 104.552910 9.721220 -10.420293 -161.379868 -16.473232 -150.512238 105.519653
15 104.552910 9.721220 -10.420293 -161.379868 -16.473232 -150.512238 105.519653
